<?xml version="1.0" standalone="no"?>
<!DOCTYPE svg PUBLIC "-//W3C//DTD SVG 20010904//EN"
 "http://www.w3.org/TR/2001/REC-SVG-20010904/DTD/svg10.dtd">
<svg version="1.0" xmlns="http://www.w3.org/2000/svg"
 width="700.000000pt" height="700.000000pt" viewBox="0 0 700.000000 700.000000"
 preserveAspectRatio="xMidYMid meet">
<metadata>
Created by potrace 1.14, written by Peter Selinger 2001-2017
</metadata>
<g transform="translate(0.000000,700.000000) scale(0.100000,-0.100000)"
fill="#000000" stroke="none">
<path d="M1305 6227 c-425 -355 -727 -735 -955 -1203 -113 -233 -227 -557
-265 -755 -3 -13 -11 -58 -20 -99 -29 -146 -35 -192 -52 -370 -15 -163 -8
-591 12 -711 2 -13 6 -46 9 -74 9 -78 22 -152 51 -285 21 -96 91 -339 114
-395 5 -11 25 -65 46 -120 63 -166 249 -531 312 -610 4 -6 34 -49 65 -95 170
-255 433 -535 708 -755 92 -74 370 -265 386 -265 4 0 15 -6 23 -14 26 -22 298
-158 408 -204 146 -60 384 -141 459 -156 10 -2 57 -13 104 -25 109 -26 200
-43 299 -57 25 -3 57 -8 71 -10 163 -25 682 -25 842 1 13 2 46 7 73 10 71 10
87 13 115 18 14 3 43 8 65 12 22 4 76 16 120 27 44 10 87 21 96 23 25 5 157
45 219 65 178 57 568 235 660 300 15 11 33 20 39 20 6 0 11 5 11 10 0 6 5 10
10 10 15 0 220 141 330 227 152 118 324 280 450 422 36 41 70 79 76 85 6 6 48
61 94 121 150 197 277 405 383 628 26 53 47 99 47 102 0 2 11 28 24 57 57 127
151 421 182 573 17 81 54 301 59 350 4 33 9 71 11 85 9 46 11 524 4 605 -12
128 -21 202 -25 227 -3 13 -8 43 -11 68 -18 134 -90 414 -152 590 -206 586
-579 1126 -1047 1515 -33 28 -71 60 -85 73 -32 28 -36 28 -43 -6 -15 -76 -206
-191 -402 -242 -16 -4 -73 -19 -125 -33 -89 -24 -209 -49 -290 -62 -19 -3 -42
-8 -50 -10 -8 -2 -37 -7 -65 -11 -27 -3 -59 -8 -70 -10 -11 -2 -38 -7 -60 -9
-22 -3 -56 -7 -75 -10 -19 -2 -62 -7 -95 -10 -33 -3 -71 -8 -85 -10 -14 -2
-63 -7 -110 -11 -47 -3 -92 -7 -101 -9 -95 -18 -970 -27 -1179 -12 -180 13
-323 27 -430 42 -90 13 -188 28 -205 31 -20 5 -35 7 -105 19 -69 12 -227 55
-335 90 -183 61 -330 141 -428 234 -26 25 -51 47 -55 48 -4 1 -29 -17 -57 -40z
m976 -1636 c213 -50 390 -150 544 -307 166 -167 268 -368 312 -609 2 -11 6
-81 8 -155 7 -240 -49 -434 -183 -639 -124 -187 -319 -344 -537 -429 -220 -86
-514 -92 -744 -16 -161 54 -311 146 -435 268 -218 214 -333 486 -334 795 -2
480 305 908 762 1062 65 22 74 25 151 39 88 16 117 18 245 15 81 -2 155 -11
211 -24z m2924 5 c223 -53 398 -149 556 -306 166 -165 272 -370 315 -610 3
-14 7 -83 9 -155 7 -223 -41 -404 -161 -612 -15 -26 -31 -50 -34 -53 -3 -3
-19 -23 -35 -45 -31 -42 -128 -142 -180 -185 -133 -113 -337 -204 -525 -235
-84 -14 -346 -15 -368 -1 -5 3 -27 8 -47 12 -99 15 -294 98 -387 164 -24 17
-54 38 -68 47 -34 24 -159 149 -195 198 -118 158 -187 315 -223 515 -14 76 -7
323 12 405 35 154 122 340 213 455 54 68 165 173 235 223 136 96 338 178 478
193 30 3 57 8 59 10 11 11 283 -6 346 -20z m-1437 -2903 l-253 -253 -252 252
-253 253 252 252 253 253 252 -252 253 -253 -252 -252z"/>
<path d="M1887 3979 c-244 -47 -431 -291 -414 -538 10 -143 58 -252 152 -344
108 -108 216 -152 370 -152 163 0 268 45 383 165 95 99 144 234 138 379 -7
140 -53 246 -152 346 -123 124 -300 177 -477 144z"/>
<path d="M4850 3983 c-55 -9 -150 -45 -196 -74 -100 -64 -206 -209 -230 -314
-12 -53 -13 -188 -2 -240 26 -127 131 -274 243 -340 254 -148 583 -62 724 190
51 91 66 150 65 265 0 89 -5 115 -28 175 -34 90 -66 136 -134 202 -113 107
-289 162 -442 136z"/>
</g>
</svg>
