<?xml version="1.0" standalone="no"?>
<!DOCTYPE svg PUBLIC "-//W3C//DTD SVG 20010904//EN"
 "http://www.w3.org/TR/2001/REC-SVG-20010904/DTD/svg10.dtd">
<svg version="1.0" xmlns="http://www.w3.org/2000/svg"
 width="1024.000000pt" height="1024.000000pt" viewBox="0 0 1024.000000 1024.000000"
 preserveAspectRatio="xMidYMid meet">
<metadata>
Created by potrace 1.14, written by Peter Selinger 2001-2017
</metadata>
<g transform="translate(0.000000,1024.000000) scale(0.100000,-0.100000)"
fill="#000000" stroke="none">
<path d="M3387 7994 c-1 -1 -69 -5 -152 -8 -82 -4 -168 -9 -190 -11 -22 -3
-67 -7 -100 -9 -88 -7 -196 -20 -250 -31 -16 -3 -55 -13 -85 -22 -30 -9 -61
-17 -68 -19 -24 -4 -216 -103 -262 -134 -25 -16 -54 -36 -65 -42 -10 -7 -24
-17 -30 -23 -6 -5 -26 -21 -44 -35 -115 -88 -334 -308 -433 -435 -32 -42 -51
-65 -64 -79 -5 -6 -44 -56 -85 -111 -40 -55 -76 -102 -80 -105 -5 -5 -136
-190 -154 -218 -5 -9 -31 -50 -57 -91 -26 -42 -51 -80 -56 -86 -6 -9 -20 -30
-77 -127 -5 -10 -34 -56 -62 -103 -29 -48 -53 -89 -53 -91 0 -3 -5 -10 -10
-17 -6 -7 -62 -96 -124 -199 -96 -157 -331 -519 -358 -553 -35 -42 -169 -241
-226 -337 -127 -208 -245 -477 -288 -653 -4 -16 -9 -154 -10 -305 -2 -208 1
-293 12 -350 18 -97 41 -190 59 -240 8 -22 15 -44 16 -48 7 -34 65 -158 107
-227 88 -148 281 -360 459 -506 75 -61 279 -166 413 -212 198 -68 255 -76 575
-76 294 1 328 5 475 55 30 10 57 19 60 19 13 2 58 18 85 29 17 7 80 32 140 56
l110 43 167 166 167 166 -75 260 c-41 143 -76 267 -78 275 -8 38 -18 76 -23
90 -3 8 -7 20 -8 25 -9 40 -49 173 -55 184 -6 11 -9 9 -14 -7 -4 -12 -11 -22
-15 -22 -4 0 -13 -11 -19 -24 -6 -14 -18 -33 -26 -43 -8 -10 -38 -49 -67 -88
-101 -136 -364 -375 -413 -375 -8 0 -16 -3 -18 -7 -5 -12 -77 -44 -129 -58
-44 -12 -319 -13 -384 -2 -16 3 -46 8 -65 12 -144 25 -298 85 -393 151 -26 19
-49 34 -52 34 -2 0 -30 27 -62 60 -99 103 -159 218 -190 365 -31 147 -20 373
26 535 7 25 15 52 16 60 5 21 40 117 59 162 9 21 96 158 193 305 259 393 456
694 534 813 38 58 72 110 77 116 5 5 15 21 22 34 7 13 17 29 22 34 5 6 92 137
193 291 101 154 188 285 194 292 6 7 11 14 11 17 0 2 35 57 79 123 77 116 118
163 217 253 80 73 207 170 222 170 5 0 17 9 27 20 10 11 22 20 26 20 5 0 30
13 56 28 47 27 167 78 248 103 43 14 53 16 100 23 17 3 50 9 75 14 48 9 277 8
320 -2 14 -4 36 -8 50 -11 14 -3 36 -7 49 -10 50 -10 186 -57 249 -87 84 -39
216 -117 220 -129 2 -5 8 -9 14 -9 15 0 137 -100 211 -173 34 -34 103 -111
152 -172 49 -60 92 -112 95 -115 3 -3 42 -50 87 -105 44 -55 90 -111 102 -125
11 -14 24 -29 28 -35 42 -53 140 -174 152 -187 9 -9 21 -23 26 -30 41 -52 142
-176 154 -190 9 -9 21 -23 26 -30 38 -49 211 -264 216 -268 5 -5 126 -154 172
-213 12 -15 34 -41 48 -58 15 -17 31 -36 36 -43 95 -120 129 -162 134 -166 3
-3 41 -50 85 -105 43 -55 81 -102 84 -105 3 -3 23 -27 45 -55 59 -74 69 -86
80 -99 6 -6 26 -31 45 -56 39 -51 57 -72 84 -103 10 -12 30 -38 45 -57 14 -19
28 -37 31 -40 4 -3 36 -43 74 -90 37 -47 73 -92 79 -100 7 -8 68 -85 137 -170
68 -85 128 -156 132 -158 4 -2 8 -10 8 -17 0 -7 3 -15 8 -17 4 -1 25 -25 47
-53 22 -27 42 -52 45 -55 3 -3 17 -21 30 -40 13 -19 27 -37 31 -40 4 -3 24
-28 45 -56 22 -28 51 -66 67 -85 42 -52 189 -242 212 -274 11 -15 28 -36 38
-47 9 -10 17 -21 17 -24 0 -3 20 -30 45 -61 25 -30 45 -58 45 -62 0 -3 10 -17
23 -31 12 -14 35 -43 52 -65 45 -60 172 -185 240 -235 33 -25 62 -47 65 -50
12 -12 174 -105 180 -103 3 0 16 -7 30 -17 14 -9 36 -21 50 -25 14 -4 30 -11
35 -15 15 -10 122 -46 205 -68 140 -38 222 -44 520 -39 283 4 286 4 400 36
130 35 126 34 160 48 14 6 50 19 80 31 60 22 199 93 241 123 15 10 30 19 33
19 4 0 12 5 19 10 44 37 61 50 66 50 6 0 40 30 126 110 22 20 60 60 85 89 25
30 50 59 55 65 17 20 95 135 95 140 0 3 13 26 29 51 45 71 131 287 146 366 3
13 7 35 10 49 13 61 16 78 23 135 9 79 9 544 -1 615 -4 30 -11 72 -16 93 -5
20 -7 37 -4 37 3 0 1 6 -5 13 -5 6 -13 28 -17 47 -4 19 -12 46 -18 60 -6 14
-11 27 -12 30 -5 22 -21 62 -38 100 -53 120 -87 182 -187 339 -33 51 -60 97
-60 101 0 5 -3 10 -8 12 -10 4 -162 245 -162 257 0 5 -4 11 -8 13 -4 2 -35 45
-67 96 -33 51 -99 153 -147 227 -49 75 -88 139 -88 144 0 5 -4 11 -8 13 -11 4
-72 94 -72 106 0 6 -3 12 -8 14 -4 2 -27 35 -52 73 -24 39 -47 72 -50 75 -3 3
-17 23 -30 45 -13 22 -29 45 -35 51 -5 6 -19 27 -30 47 -11 20 -23 37 -27 37
-5 0 -8 6 -8 14 0 8 -3 16 -7 18 -5 2 -50 66 -102 143 -52 77 -107 156 -123
176 -15 20 -28 41 -28 47 0 6 -4 12 -8 14 -8 3 -75 96 -115 159 -11 16 -23 29
-28 29 -5 0 -9 6 -9 13 0 6 -13 26 -28 44 -15 17 -46 58 -69 90 -23 32 -50 67
-60 78 -10 11 -26 31 -36 45 -63 91 -308 303 -434 376 -26 16 -50 31 -53 35
-5 6 -218 113 -230 115 -3 0 -18 6 -35 13 -79 34 -270 92 -340 105 -16 3 -55
9 -85 15 -30 5 -199 10 -375 9 -356 0 -412 -6 -610 -72 -127 -43 -370 -160
-415 -201 -9 -8 -20 -15 -23 -15 -4 0 -35 -20 -70 -45 -34 -25 -73 -53 -86
-62 -143 -104 -387 -338 -491 -472 -52 -66 -61 -75 -89 -76 -34 -2 -47 7 -86
59 -60 79 -208 233 -334 345 -205 183 -464 348 -681 430 -30 12 -64 25 -75 30
-24 11 -119 38 -160 46 -16 3 -41 8 -55 10 -43 9 -336 25 -343 19z m3668 -729
c281 -24 599 -172 821 -382 48 -44 194 -250 194 -272 0 -5 4 -11 9 -13 7 -2
96 -133 111 -163 12 -24 66 -100 73 -103 4 -2 7 -7 7 -12 0 -7 218 -343 237
-365 5 -5 18 -26 29 -45 10 -19 27 -43 37 -54 9 -11 17 -23 17 -27 0 -5 18
-34 40 -66 22 -32 45 -65 50 -73 5 -8 64 -97 130 -198 66 -100 119 -184 117
-186 -1 -3 7 -15 18 -28 12 -13 37 -48 57 -78 51 -79 91 -140 103 -159 9 -14
99 -151 234 -356 25 -38 64 -106 86 -150 22 -44 45 -83 50 -87 6 -4 7 -8 3 -8
-4 0 0 -19 9 -42 12 -35 15 -88 15 -275 l-1 -232 -61 -126 c-34 -69 -65 -125
-71 -125 -5 0 -9 -5 -9 -11 0 -16 -88 -127 -141 -179 -70 -68 -89 -83 -154
-123 -198 -119 -413 -141 -700 -72 -18 4 -49 16 -67 26 -10 5 -23 9 -28 9 -16
0 -115 47 -190 90 -54 31 -81 59 -160 156 -52 66 -97 121 -100 124 -3 3 -23
28 -45 55 -22 28 -44 55 -50 62 -5 6 -21 26 -35 44 -14 18 -33 41 -42 51 -10
10 -18 22 -18 27 0 5 -3 11 -8 13 -4 1 -36 39 -72 83 -35 44 -67 82 -70 85 -3
3 -24 30 -47 60 -23 30 -50 64 -60 75 -10 11 -41 49 -68 84 -28 35 -59 74 -70
86 -11 13 -29 36 -40 51 -11 15 -25 32 -30 38 -6 6 -48 58 -94 116 -46 58 -90
110 -98 116 -7 6 -13 16 -13 22 0 6 -6 15 -13 19 -6 4 -24 24 -38 43 -15 19
-35 45 -45 57 -11 12 -31 37 -46 55 -14 18 -59 74 -100 124 -40 50 -86 109
-103 130 -16 20 -35 42 -40 48 -6 6 -64 79 -130 161 -65 83 -124 155 -130 161
-5 6 -21 26 -35 44 -14 18 -29 38 -35 44 -5 6 -32 38 -58 71 -26 33 -54 67
-60 75 -7 8 -57 71 -112 140 -55 69 -102 127 -105 130 -3 3 -24 27 -45 55 -22
27 -44 55 -50 61 -5 6 -21 26 -35 44 -14 18 -30 38 -35 44 -6 6 -26 31 -45 56
-19 25 -42 52 -52 61 -10 9 -18 21 -18 26 0 5 -11 20 -25 33 -28 27 -30 36
-12 55 6 7 23 28 37 46 199 261 473 495 725 621 72 35 203 85 248 94 4 1 8 2
10 4 10 8 145 31 217 37 41 3 76 6 77 7 3 2 60 -1 148 -9z"/>
<path d="M4130 5818 c-25 -28 -50 -56 -57 -63 -125 -131 -366 -451 -495 -660
-51 -83 -141 -243 -144 -255 0 -3 -16 -39 -36 -80 -38 -81 -105 -259 -114
-305 -17 -84 -23 -129 -19 -135 3 -5 1 -11 -5 -15 -6 -4 -8 -11 -4 -17 8 -12
8 -133 0 -146 -3 -5 -3 -11 -1 -14 3 -3 7 -56 8 -119 8 -281 163 -655 375
-908 77 -91 194 -204 262 -251 19 -13 37 -27 40 -30 3 -3 41 -29 85 -57 172
-109 405 -203 590 -238 41 -7 306 -17 495 -18 177 0 247 7 313 32 15 6 27 9
27 6 0 -11 216 87 275 125 17 11 37 23 45 26 22 11 148 101 210 153 52 42 225
212 298 292 19 20 37 53 42 73 9 42 3 53 -125 192 -16 18 -44 50 -62 71 -18
21 -46 54 -63 73 -17 19 -55 62 -83 95 -29 32 -71 80 -94 105 -24 25 -43 50
-43 55 0 6 -11 -6 -23 -26 -55 -87 -127 -174 -227 -273 -60 -58 -113 -106
-119 -106 -5 0 -11 -4 -13 -9 -3 -9 -96 -69 -138 -88 -143 -68 -127 -65 -368
-67 -257 -2 -318 7 -437 63 -172 82 -313 219 -413 401 -81 148 -100 234 -96
423 5 191 21 307 52 375 24 53 153 249 241 366 124 166 324 421 333 424 16 7
7 38 -20 67 -15 17 -50 57 -77 90 -28 33 -61 72 -75 86 -14 15 -41 46 -59 69
-19 23 -40 48 -45 54 -24 25 -142 163 -162 189 -12 15 -23 27 -25 27 -2 -1
-24 -24 -49 -52z"/>
</g>
</svg>
